
          <svg data-logo="logo" xmlns="http://www.w3.org/2000/svg" viewBox="0 0 206 43">
            <g id="logogram" transform="translate(0, 1) rotate(0)"><path d="M40.207 22.1241H33.0426C26.7844 22.1241 21.7112 27.1973 21.7112 33.4555V40.6199C31.5885 39.8876 39.4747 32.0014 40.207 22.1241Z" fill="#775732"/><path d="M18.7029 40.6199V33.4555C18.7029 27.1973 13.6296 22.1241 7.37148 22.1241H0.207031C0.939394 32.0014 8.8256 39.8876 18.7029 40.6199Z" fill="#775732"/><path d="M40.207 19.1158C39.4747 9.23851 31.5885 1.3523 21.7112 0.619934V7.78438C21.7112 14.0425 26.7844 19.1158 33.0426 19.1158H40.207Z" fill="#775732"/><path d="M18.7029 0.619934C8.8256 1.3523 0.939394 9.23851 0.207031 19.1158H7.37148C13.6296 19.1158 18.7029 14.0425 18.7029 7.78438V0.619934Z" fill="#775732"/><path d="M13.7722 20.6197C16.5524 19.2306 18.8182 16.9648 20.2073 14.1846C21.5963 16.9648 23.8621 19.2306 26.6423 20.6197C23.8621 22.0087 21.5963 24.2745 20.2073 27.0547C18.8182 24.2745 16.5524 22.0087 13.7722 20.6197Z" fill="#CA9352"/></g>
            <g id="logotype" transform="translate(47, 8.5)"><path fill="#b57730" d="M18.01 26.42L18.01 26.42Q15.91 26.42 14.02 26Q12.13 25.58 10.67 24.65Q9.22 23.73 8.40 22.31Q7.58 20.89 7.58 18.86L7.58 18.86Q7.58 18.68 7.58 18.49Q7.58 18.30 7.61 18.20L7.61 18.20L12.79 18.20Q12.76 18.30 12.76 18.48Q12.76 18.65 12.76 18.79L12.76 18.79Q12.76 19.91 13.37 20.68Q13.98 21.45 15.17 21.84Q16.36 22.22 17.94 22.22L17.94 22.22Q18.95 22.22 19.74 22.10Q20.53 21.98 21.14 21.75Q21.75 21.52 22.15 21.20Q22.56 20.89 22.75 20.47Q22.94 20.05 22.94 19.52L22.94 19.52Q22.94 18.58 22.33 17.98Q21.72 17.39 20.65 16.97Q19.58 16.55 18.25 16.20Q16.92 15.85 15.52 15.48Q14.12 15.11 12.79 14.57Q11.46 14.03 10.41 13.26Q9.36 12.49 8.73 11.30Q8.10 10.11 8.10 8.43L8.10 8.43Q8.10 6.64 8.85 5.35Q9.61 4.05 10.97 3.21Q12.34 2.37 14.12 1.97Q15.91 1.57 18.01 1.57L18.01 1.57Q19.97 1.57 21.72 1.97Q23.47 2.37 24.80 3.25Q26.13 4.12 26.88 5.45Q27.63 6.78 27.63 8.60L27.63 8.60L27.63 9.02L22.56 9.02L22.56 8.74Q22.56 7.80 22.00 7.13Q21.44 6.47 20.42 6.08Q19.41 5.70 18.04 5.70L18.04 5.70Q16.57 5.70 15.54 5.98Q14.51 6.26 13.96 6.80Q13.42 7.34 13.42 8.08L13.42 8.08Q13.42 8.92 14.03 9.46Q14.65 10.00 15.71 10.41Q16.78 10.81 18.11 11.12Q19.44 11.44 20.84 11.82Q22.24 12.21 23.57 12.73Q24.90 13.26 25.95 14.05Q27.00 14.83 27.63 15.99Q28.26 17.14 28.26 18.75L28.26 18.75Q28.26 21.52 26.93 23.20Q25.60 24.88 23.29 25.65Q20.98 26.42 18.01 26.42ZM35.33 26L30.47 26L30.47 7.59L34.49 7.59L34.88 10.11L35.12 10.11Q35.72 9.20 36.54 8.53Q37.36 7.87 38.39 7.52Q39.43 7.17 40.62 7.17L40.62 7.17Q42.37 7.17 43.64 7.87Q44.92 8.57 45.62 10.11L45.62 10.11L45.87 10.11Q46.46 9.20 47.30 8.53Q48.14 7.87 49.23 7.52Q50.31 7.17 51.54 7.17L51.54 7.17Q53.29 7.17 54.56 7.80Q55.84 8.43 56.58 9.85Q57.31 11.26 57.31 13.50L57.31 13.50L57.31 26L52.45 26L52.45 14.38Q52.45 13.50 52.25 12.89Q52.06 12.28 51.71 11.91Q51.36 11.54 50.84 11.37Q50.31 11.19 49.72 11.19L49.72 11.19Q48.73 11.19 47.97 11.72Q47.20 12.24 46.76 13.15Q46.32 14.06 46.32 15.25L46.32 15.25L46.32 26L41.45 26L41.45 14.38Q41.45 13.50 41.26 12.89Q41.07 12.28 40.72 11.91Q40.37 11.54 39.86 11.37Q39.36 11.19 38.73 11.19L38.73 11.19Q37.78 11.19 36.99 11.72Q36.20 12.24 35.77 13.15Q35.33 14.06 35.33 15.25L35.33 15.25L35.33 26ZM64.98 26.42L64.98 26.42Q64.06 26.42 63.03 26.21Q62.00 26 61.09 25.46Q60.18 24.91 59.60 23.88Q59.03 22.85 59.03 21.24L59.03 21.24Q59.03 19.31 59.87 18.05Q60.71 16.80 62.26 16.08Q63.82 15.36 65.99 15.08Q68.16 14.80 70.79 14.80L70.79 14.80L70.79 13.43Q70.79 12.63 70.52 12.03Q70.26 11.44 69.61 11.09Q68.97 10.74 67.81 10.74L67.81 10.74Q66.66 10.74 65.94 11.02Q65.22 11.30 64.92 11.74Q64.63 12.17 64.63 12.70L64.63 12.70L64.63 13.12L59.90 13.12Q59.87 12.94 59.87 12.79Q59.87 12.63 59.87 12.38L59.87 12.38Q59.87 10.77 60.85 9.60Q61.83 8.43 63.61 7.80Q65.40 7.17 67.78 7.17L67.78 7.17Q70.33 7.17 72.06 7.83Q73.80 8.50 74.72 9.79Q75.65 11.09 75.65 13.05L75.65 13.05L75.65 21.41Q75.65 22.04 76.02 22.34Q76.39 22.64 76.84 22.64L76.84 22.64L78.00 22.64L78.00 25.82Q77.65 26 76.91 26.19Q76.18 26.39 75.13 26.39L75.13 26.39Q74.11 26.39 73.32 26.09Q72.54 25.79 72.01 25.25Q71.49 24.70 71.28 23.93L71.28 23.93L71.03 23.93Q70.44 24.67 69.58 25.23Q68.72 25.79 67.58 26.11Q66.45 26.42 64.98 26.42ZM66.62 22.75L66.62 22.75Q67.60 22.75 68.37 22.45Q69.14 22.15 69.67 21.64Q70.19 21.13 70.49 20.40Q70.79 19.66 70.79 18.82L70.79 18.82L70.79 17.81Q68.83 17.81 67.29 18.07Q65.75 18.34 64.85 18.96Q63.96 19.59 63.96 20.71L63.96 20.71Q63.96 21.34 64.28 21.80Q64.59 22.25 65.19 22.50Q65.78 22.75 66.62 22.75ZM83.73 26L78.87 26L78.87 7.59L82.89 7.59L83.28 10.46L83.52 10.46Q83.88 9.55 84.44 8.80Q84.99 8.04 85.83 7.59Q86.67 7.13 87.80 7.13L87.80 7.13Q88.39 7.13 88.88 7.26Q89.37 7.38 89.61 7.48L89.61 7.48L89.61 11.89L88.11 11.89Q87.02 11.89 86.20 12.19Q85.38 12.49 84.82 13.12Q84.26 13.75 84.00 14.66Q83.73 15.57 83.73 16.80L83.73 16.80L83.73 26ZM96.12 26.42L96.12 26.42Q94.37 26.42 93.29 25.79Q92.20 25.16 91.71 24.09Q91.22 23.02 91.22 21.73L91.22 21.73L91.22 11.33L88.95 11.33L88.95 7.59L91.40 7.59L92.31 2.34L96.09 2.34L96.09 7.59L99.45 7.59L99.45 11.33L96.09 11.33L96.09 20.93Q96.09 21.77 96.47 22.20Q96.86 22.64 97.73 22.64L97.73 22.64L99.45 22.64L99.45 25.86Q99.03 26 98.47 26.12Q97.91 26.25 97.28 26.33Q96.65 26.42 96.12 26.42ZM105.92 4.89L101.06 4.89L101.06 0.69L105.92 0.69L105.92 4.89ZM105.92 26L101.06 26L101.06 7.59L105.92 7.59L105.92 26ZM113.73 26L108.86 26L108.86 7.59L112.89 7.59L113.27 10.11L113.52 10.11Q114.15 9.20 115.04 8.53Q115.93 7.87 117.05 7.52Q118.17 7.17 119.50 7.17L119.50 7.17Q121.32 7.17 122.69 7.83Q124.05 8.50 124.81 9.93Q125.56 11.37 125.56 13.68L125.56 13.68L125.56 26L120.69 26L120.69 14.45Q120.69 13.57 120.48 12.96Q120.27 12.35 119.87 11.95Q119.47 11.54 118.87 11.37Q118.28 11.19 117.54 11.19L117.54 11.19Q116.46 11.19 115.58 11.72Q114.71 12.24 114.22 13.15Q113.73 14.06 113.73 15.25L113.73 15.25L113.73 26ZM136.76 26.42L136.76 26.42Q133.71 26.42 131.65 25.39Q129.58 24.36 128.53 22.22Q127.48 20.09 127.48 16.80L127.48 16.80Q127.48 13.47 128.53 11.35Q129.58 9.23 131.63 8.20Q133.68 7.17 136.65 7.17L136.65 7.17Q139.45 7.17 141.38 8.17Q143.30 9.16 144.28 11.25Q145.26 13.33 145.26 16.62L145.26 16.62L145.26 17.88L132.42 17.88Q132.49 19.49 132.93 20.61Q133.36 21.73 134.29 22.27Q135.22 22.81 136.76 22.81L136.76 22.81Q137.60 22.81 138.28 22.61Q138.96 22.39 139.45 21.98Q139.94 21.55 140.22 20.93Q140.50 20.29 140.50 19.49L140.50 19.49L145.26 19.49Q145.26 21.24 144.63 22.54Q144.00 23.83 142.88 24.69Q141.76 25.55 140.21 25.98Q138.65 26.42 136.76 26.42ZM132.49 14.80L132.49 14.80L140.26 14.80Q140.26 13.75 140.00 12.98Q139.73 12.21 139.28 11.72Q138.82 11.23 138.18 11.00Q137.53 10.77 136.72 10.77L136.72 10.77Q135.39 10.77 134.50 11.21Q133.61 11.65 133.14 12.54Q132.66 13.43 132.49 14.80ZM152.16 26L147.29 26L147.29 7.59L151.32 7.59L151.70 10.46L151.95 10.46Q152.30 9.55 152.86 8.80Q153.42 8.04 154.26 7.59Q155.10 7.13 156.22 7.13L156.22 7.13Q156.81 7.13 157.30 7.26Q157.79 7.38 158.04 7.48L158.04 7.48L158.04 11.89L156.53 11.89Q155.45 11.89 154.63 12.19Q153.80 12.49 153.24 13.12Q152.68 13.75 152.42 14.66Q152.16 15.57 152.16 16.80L152.16 16.80L152.16 26Z"/></g>
            
          </svg>
        