<svg xmlns="http://www.w3.org/2000/svg" version="1.1" xmlns:xlink="http://www.w3.org/1999/xlink" width="1500" height="1500" viewBox="0 0 1500 1500"><rect width="1500" height="1500" x="0" y="0" id="background" stroke="transparent" fill="#5e5e5e"></rect><svg xml:space="preserve" width="1000" height="1000" data-version="2" data-id="lg_ofYD3PIDr3CxUUwoEl" viewBox="0 0 563 177" x="250" y="250"><rect width="100%" height="100%" fill="transparent"></rect><path fill="#ffffff" d="m81.882 5.365 1.27 31.87h-2.41q-5.59-16.89-9.91-23.05t-12.45-6.16h-1.52v83.57h10.8v2.67h-46.36v-2.67h10.8V8.025h-1.66q-8.12 0-12.57 6.42-4.44 6.41-9.78 22.79h-2.41l1.27-31.87Z"></path><rect width="77.47" height="88.9" x="-38.73" y="-44.45" fill="none" rx="0" ry="0" transform="translate(44.92 50.31)"></rect><path fill="#ffffff" d="M129.002 37.365q-4.7 0-8.26 6.1-3.55 6.09-3.55 14.47v34.04h9.01v2.29h-39.62v-2.29h6.98v-55.88h-6.98v-2.29h30.61v12.2q1.65-6.48 6.35-9.97 4.69-3.5 10.66-3.5t9.72 3.37q3.75 3.36 3.75 9.52t-2.8 9.47q-2.79 3.3-8.57 3.3t-8.51-3.81q-2.73-3.81-.7-10.54h4.57q3.18-6.48-2.66-6.48"></path><rect width="61.09" height="61.73" x="-30.55" y="-30.86" fill="none" rx="0" ry="0" transform="translate(117.63 63.9)"></rect><path fill="#ffffff" d="M168.112 25.045h-3.36q-3.37 0-6.23-3.43-2.85-3.43-2.85-8.51t3.11-8.38q3.11-3.3 9.46-3.3 6.35 0 9.65 2.98 3.3 2.99 3.3 8.51 0 5.53-3.17 8.83-3.18 3.3-9.91 3.3m-19.17 8.76h31.11v58.17h7.11v2.29h-37.72v-2.29h6.99v-55.88h-7.49Z"></path><rect width="38.22" height="92.84" x="-19.11" y="-46.42" fill="none" rx="0" ry="0" transform="translate(168.55 48.34)"></rect><path fill="#ffffff" d="M236.062 60.095q0-13.08-1.27-17.59t-4.96-4.51q-3.68 0-6.6 4.77-2.92 4.76-2.92 12.76v23.24q0 5.46 2.16 9.27 2.16 3.81 6.35 3.81 4.19 0 5.71-5.59 1.53-5.58 1.53-19.55zm-16-26.29v10.04q4.95-11.31 17.52-11.31 10.92 0 16.96 7.88 6.03 7.87 6.03 23.87 0 16.01-6.54 23.63-6.54 7.62-19.62 7.62-6.1 0-9.15-1.53-3.05-1.52-4.95-4.7v32.9h16.38v2.28h-46.99v-2.28h6.99v-86.11h-6.73v-2.29Z"></path><rect width="70.87" height="91.95" x="-35.44" y="-45.98" fill="none" rx="0" ry="0" transform="translate(225.64 79.01)"></rect><path fill="#ffffff" d="M264.382 33.805h30.61v11.69q4.19-12.96 18.47-12.96 14.29 0 17.34 13.72 4.44-13.72 18.67-13.72 18.67 0 18.67 21.21v38.23h7.11v2.29h-35.18v-2.29h4.45v-41.28q0-9.65-1.66-11.3-.76-.76-2.03-.76-3.68 0-6.47 4.95-2.8 4.96-2.8 12.58v35.81h4.57v2.29h-32.64v-2.29h4.45v-41.28q0-9.65-1.65-11.3-.76-.76-2.03-.76-3.56 0-6.42 5.4-2.85 5.39-2.85 12.89v35.05h4.57v2.29h-35.18v-2.29h6.98v-55.88h-6.98Z"></path><rect width="110.87" height="61.73" x="-55.44" y="-30.86" fill="none" rx="0" ry="0" transform="translate(320.32 63.9)"></rect><path fill="#ffffff" d="M407.632 64.415h3.69v-9.78q0-12.06-1.34-16.19-1.33-4.13-5.14-4.13-2.29 0-4.13 1.21-1.84 1.2-1.84 3.3 0 2.1.76 4.25h3.18q1.01 2.67 1.01 6.42 0 3.74-3.17 6.48-3.18 2.73-8 2.73-10.92 0-10.92-10.55 0-15.62 26.54-15.62 15.11 0 20.89 5.15 5.78 5.14 5.78 18.86v25.78q0 6.6 3.68 6.6 4.32 0 5.08-13.08l1.91.13q-.51 11.17-4.19 15.36-3.69 4.2-12.07 4.2-15.24 0-17.52-9.4-1.66 4.82-4.96 7.11t-9.65 2.29q-18.8 0-18.8-15.37 0-9.02 7.18-12.38 7.18-3.37 22.03-3.37m-5.08 15.62q0 6.61.7 8.51.7 1.91 2.67 1.91t3.68-3.24q1.72-3.24 1.72-8.96v-11.81h-.89q-7.88 0-7.88 11.56z"></path><rect width="67.19" height="63" x="-33.59" y="-31.5" fill="none" rx="0" ry="0" transform="translate(412.52 64.53)"></rect><path fill="#ffffff" d="M451.322 76.095v-40h-6.98v-2.29h6.98v-16.38l23.62-5.84v22.22h16.51v2.29h-16.51v42.8q0 5.97 1.21 8.76 1.21 2.8 5.02 2.8 3.81 0 6.67-3.81 2.85-3.81 3.74-10.42l2.16.26q-1.02 8.76-5.59 13.9-4.57 5.15-15.11 5.15t-16.13-4.2q-5.59-4.19-5.59-15.24"></path><rect width="49.4" height="83.95" x="-24.7" y="-41.98" fill="none" rx="0" ry="0" transform="translate(469.54 54.06)"></rect><path fill="#ffffff" d="M528.412 95.535q-16.38 0-24.57-8.45-8.19-8.45-8.19-23.49 0-15.05 9.2-23.06 9.21-8 23.43-8 28.83 0 27.69 28.96h-35.81v4.95q0 12.45 3.17 18.8 3.18 6.35 11.05 6.35 14.73 0 19.3-15.75l2.29.38q-2.41 9.15-8.7 14.23-6.29 5.08-18.86 5.08m-8.13-36.58h13.08v-6.22q0-10.29-1.2-14.04-1.21-3.74-4.83-3.74t-5.33 4q-1.72 4-1.72 13.78Z"></path><rect width="60.67" height="63" x="-30.33" y="-31.5" fill="none" rx="0" ry="0" transform="translate(526.49 64.53)"></rect><path fill="#ffffff" d="M130.652 144.865q-1.16 0-1.44 1.06-.04.21-.04.42 0 .35.56 2.92.35 1.58.42 2.81h.95q.07-1.12.78-4.39.21-.92.21-1.38 0-1.12-1.02-1.37-.21-.07-.42-.07m4.32 0q-1.34.25-1.48 1.48 0 .35.57 2.92.35 1.58.42 2.81h.95q.07-1.12.77-4.39.21-.92.21-1.38 0-1.12-1.02-1.37-.21-.07-.42-.07"></path><rect width="7.24" height="7.21" x="-3.62" y="-3.6" fill="none" rx="0" ry="0" transform="translate(133.3 148.97)"></rect><path fill="#ffffff" d="M149.242 147.715q3.13 0 4.05 2.81.28.92.28 1.97 0 4.57-4.08 5.03-.42.03-.84.03h-3.24v-9.84Zm-.31 20.18q0-.77-.56-.88-.18-.03-.36-.03h-2.6v-8.41h3.1q5.76 0 7.62-3.27.74-1.23.74-2.84 0-3.48-3.02-4.89-1.62-.77-3.87-.77h-10.4v.91h2.81v19.27h-2.81v.91Z"></path><rect width="17.29" height="21.09" x="-8.64" y="-10.54" fill="none" rx="0" ry="0" transform="translate(148.73 157.85)"></rect><path fill="#ffffff" d="M166.262 167.015h-1.9v-21.97h-5.27v.88h2.63v18.98q0 1.62-.91 1.94-.53.17-1.72.17v.88h8.05q0-.77-.53-.84-.14-.04-.35-.04"></path><rect width="8.05" height="22.85" x="-4.03" y="-11.43" fill="none" rx="0" ry="0" transform="translate(163.62 156.97)"></rect><path fill="#ffffff" d="M181.832 168.245q2.71 0 2.99-3.27.04-.21.04-.38l-.92-.04q-.24 2.57-1.37 2.6-.91-.07-.95-1.83v-7.41q0-5.03-5.02-5.31h-.64q-3.93 0-5.27 1.83-.42.59-.42 1.19 0 1.09 1.02 1.27.17.03.35.03.81 0 1.19-1.02.5-1.3.67-1.54.67-.88 2.08-.88 3.3.21 3.41 3.62v2.21q-8.27 0-9.46 3.45-.21.67-.21 1.44 0 2.67 2.35 3.66.95.38 2.01.38 2.56 0 4.32-1.76.63-.66.95-1.4.42 3.13 2.88 3.16m-6.99-1.4q-2.15 0-2.64-2.15-.1-.49-.1-1.09 0-2.35 2.7-2.99 1.44-.31 4.19-.35v2.81q-.53 2.43-2.57 3.41-.81.36-1.58.36"></path><rect width="15.54" height="15.64" x="-7.77" y="-7.82" fill="none" rx="0" ry="0" transform="translate(177.6 160.93)"></rect><path fill="#ffffff" d="M192.942 167.015h-1.58v-7.59q.11-3.27 2.32-4.71.95-.6 1.94-.6 2.14 0 2.91 2 .32.81.32 1.83v6.96q0 1.62-.91 1.94-.53.17-1.73.17v.88h7.91q0-.77-.52-.84-.14-.04-.36-.04h-1.75v-8.72q0-3.51-2.43-5.02-1.12-.67-2.43-.67-2.6 0-4.28 2.07-.64.81-1.02 1.79l-.14-3.51h-5.1v.88h2.63v11.07q0 1.62-.91 1.94-.53.17-1.72.17v.88h7.73q0-.77-.53-.84-.14-.04-.35-.04"></path><rect width="18.03" height="15.29" x="-9.02" y="-7.64" fill="none" rx="0" ry="0" transform="translate(195.6 160.75)"></rect><path fill="#ffffff" d="M210.352 166.275q0-1.16-1.06-1.65-.35-.17-.74-.17-1.16 0-1.61 1.05-.18.39-.18.77 0 1.13 1.02 1.62.39.18.77.18 1.13 0 1.62-1.02.18-.39.18-.78"></path><rect width="3.59" height="3.62" x="-1.79" y="-1.81" fill="none" rx="0" ry="0" transform="translate(209.06 166.76)"></rect><path fill="#ffffff" d="M230.032 147.715q3.13 0 4.05 2.81.28.92.28 1.97 0 4.57-4.08 5.03-.42.03-.84.03h-3.24v-9.84Zm-.31 20.18q0-.77-.57-.88-.17-.03-.35-.03h-2.6v-8.41h3.09q5.77 0 7.63-3.27.74-1.23.74-2.84 0-3.48-3.02-4.89-1.62-.77-3.87-.77h-10.4v.91h2.81v19.27h-2.81v.91Z"></path><rect width="17.29" height="21.09" x="-8.64" y="-10.54" fill="none" rx="0" ry="0" transform="translate(229.52 157.85)"></rect><path fill="#ffffff" d="M252.462 168.245q2.71 0 2.99-3.27.04-.21.04-.38l-.92-.04q-.24 2.57-1.37 2.6-.91-.07-.95-1.83v-7.41q0-5.03-5.03-5.31h-.63q-3.94 0-5.27 1.83-.42.59-.42 1.19 0 1.09 1.02 1.27.17.03.35.03.81 0 1.19-1.02.5-1.3.67-1.54.67-.88 2.08-.88 3.3.21 3.41 3.62v2.21q-8.27 0-9.46 3.45-.21.67-.21 1.44 0 2.67 2.35 3.66.95.38 2.01.38 2.56 0 4.32-1.76.63-.66.95-1.4.42 3.13 2.88 3.16m-6.99-1.4q-2.15 0-2.64-2.15-.11-.49-.11-1.09 0-2.35 2.71-2.99 1.44-.31 4.19-.35v2.81q-.53 2.43-2.57 3.41-.81.36-1.58.36"></path><rect width="15.54" height="15.64" x="-7.77" y="-7.82" fill="none" rx="0" ry="0" transform="translate(248.22 160.93)"></rect><path fill="#ffffff" d="M257.072 160.585q0 4.25 3.13 6.36 1.93 1.3 4.39 1.3 3.66 0 5.52-2.56.42-.6.67-1.2l-.91-.32q-1.31 2.78-4.29 3.06-.29.04-.57.04-2.49 0-3.9-2.5-1.05-1.9-1.05-4.5 0-4.6 2.42-6.15 1.02-.63 2.25-.63 1.9 0 2.29 1.47.07.28.17.88.21 1.41.78 1.76.35.18.77.21 1.2.07 1.51-.98.07-.25.07-.46 0-1.79-2.28-2.95-1.62-.81-3.52-.81-4.71 0-6.57 3.83-.88 1.83-.88 4.15"></path><rect width="13.71" height="15.64" x="-6.86" y="-7.82" fill="none" rx="0" ry="0" transform="translate(264.43 160.93)"></rect><path fill="#ffffff" d="M278.902 167.015h-1.58v-5.2l1.93-1.79 4.96 7.87h4.67q0-.77-.52-.84-.14-.04-.35-.04h-1.27l-5.66-8.72 3.3-3.09q1.24-1.16 1.87-1.3.28-.07.63-.07.77 0 .84-.53.04-.17.04-.35h-5.98v.88h2.64l-7.1 6.57v-15.36h-5.28v.88h2.64v18.98q0 1.62-.91 1.94-.53.17-1.73.17v.88h7.74q0-.77-.53-.84-.14-.04-.35-.04"></path><rect width="16.84" height="22.85" x="-8.42" y="-11.43" fill="none" rx="0" ry="0" transform="translate(280.96 156.97)"></rect><path fill="#ffffff" d="M293.882 166.275q0-1.16-1.06-1.65-.35-.17-.74-.17-1.16 0-1.61 1.05-.18.39-.18.77 0 1.13 1.02 1.62.39.18.77.18 1.13 0 1.62-1.02.18-.39.18-.78"></path><rect width="3.59" height="3.62" x="-1.79" y="-1.81" fill="none" rx="0" ry="0" transform="translate(292.59 166.76)"></rect><path fill="#ffffff" d="m320.282 153.135-.18-6.33h-16.2v.91h2.81v19.27h-2.81v.91h16.2l.18-6.33h-.7l-.5 1.65q-.87 2.99-2.6 3.59-.52.18-1.12.18h-5.63v-9.46h7.24v-1.02h-7.24v-8.79h5.63q2.53 0 3.62 3.41.07.21.1.35l.5 1.66Z"></path><rect width="16.38" height="21.09" x="-8.19" y="-10.54" fill="none" rx="0" ry="0" transform="translate(312.6 157.85)"></rect><path fill="#ffffff" d="M322.072 167.895h5.45v-.88h-2.64l4.19-5.52 3.83 5.52h-2.14v.88h6.53q0-.77-.52-.84-.14-.04-.35-.04h-.67l-4.85-7.1 3.62-5.03q.67-.95 1.76-1.09.56-.03.66-.38.04-.18.04-.46h-5.27v.88h2.46l-3.8 5.27-3.62-5.27h2.32v-.88h-7.03v.88h1.72l4.75 6.85-4.05 5.28q-.7.91-1.75 1.05-.53.07-.6.42-.04.21-.04.46"></path><rect width="15.25" height="14.94" x="-7.63" y="-7.47" fill="none" rx="0" ry="0" transform="translate(330.17 160.93)"></rect><path fill="#ffffff" d="M343.482 173.695v-7.28q1.94 1.69 4.47 1.83 3.13 0 5.24-2.35 2.03-2.29 2.03-5.8 0-4.01-2.21-6.09-1.55-1.4-3.76-1.4-3.41 0-5.1 2.7-.42.71-.7 1.48l-.18-3.83h-5.06v.88h2.64v17.75q0 1.62-.92 1.94-.53.17-1.72.17v.88h8.61q0-.77-.53-.84-.14-.04-.35-.04Zm4.64-19.69q3.06 0 3.87 3.84.25 1.16.25 2.6 0 5.17-2.78 6.54-.81.38-1.76.38-2.71 0-3.73-2.84-.52-1.45-.52-3.41 0-4.57 2.35-6.33 1.06-.78 2.32-.78"></path><rect width="17.01" height="21.97" x="-8.51" y="-10.98" fill="none" rx="0" ry="0" transform="translate(347.22 164.09)"></rect><path fill="#ffffff" d="M364.962 167.015h-1.9v-21.97h-5.27v.88h2.64v18.98q0 1.62-.92 1.94-.52.17-1.72.17v.88h8.05q0-.77-.53-.84-.14-.04-.35-.04"></path><rect width="8.05" height="22.85" x="-4.03" y="-11.43" fill="none" rx="0" ry="0" transform="translate(362.32 156.97)"></rect><path fill="#ffffff" d="M371.192 160.405q0-5.45 2.98-6.64.78-.28 1.62-.28 3.9 0 4.54 4.92.1.84.1 1.86 0 5.91-3.23 6.93-.64.17-1.3.17-3.55 0-4.47-4.22-.24-1.23-.24-2.74m4.71-7.8q-3.38 0-5.63 2.32-2.07 2.14-2.07 5.34 0 4.43 3.23 6.65 1.97 1.33 4.36 1.33 3.38 0 5.59-2.39 2.04-2.18 2.04-5.45 0-4.43-3.27-6.57-1.93-1.23-4.25-1.23"></path><rect width="15.22" height="15.64" x="-7.61" y="-7.82" fill="none" rx="0" ry="0" transform="translate(376.31 160.93)"></rect><path fill="#ffffff" d="M393.762 167.015h-2.54v-6.99q0-3.2 1.97-5.14.78-.74 1.3-.77.6 0 1.09.88.57.98 1.06 1.12.21.07.42.07 1.06 0 1.34-1.02.07-.21.07-.42 0-1.58-1.62-1.93-.35-.07-.67-.07-2.11 0-3.76 1.79-.77.85-1.23 1.9l-.14-3.48h-5.1v.88h2.64v11.07q0 1.62-.92 1.94-.52.17-1.72.17v.88h8.68q0-.77-.52-.84-.14-.04-.35-.04"></path><rect width="12.52" height="15.15" x="-6.26" y="-7.58" fill="none" rx="0" ry="0" transform="translate(392.71 160.82)"></rect><path fill="#ffffff" d="M407.402 153.485q2.46 0 3.27 2.07.28.67.28 1.44 0 1.76-1.69 2.15-.88.17-2.5.14l-3.72-.11q.17-4.04 2.63-5.27.81-.42 1.73-.42m6.11 11.04-.88-.32q-1.23 2.67-3.97 3.02-.35.04-.67.04-3.69 0-4.64-4.4-.28-1.23-.31-2.7l4.22.07q4.28.07 5.52-.81.94-.71.94-2.01 0-2.39-2.42-3.79-1.72-1.02-3.97-1.02-4.4 0-6.3 3.65-.98 1.9-.98 4.29 0 4.36 3.13 6.47 1.86 1.23 4.25 1.23 3.8 0 5.59-2.74.28-.49.49-.98"></path><rect width="13.67" height="15.64" x="-6.83" y="-7.82" fill="none" rx="0" ry="0" transform="translate(407.39 160.93)"></rect><path fill="#ffffff" d="M420.302 166.275q0-1.16-1.06-1.65-.35-.17-.73-.17-1.16 0-1.62 1.05-.18.39-.18.77 0 1.13 1.02 1.62.39.18.78.18 1.12 0 1.61-1.02.18-.39.18-.78"></path><rect width="3.59" height="3.62" x="-1.79" y="-1.81" fill="none" rx="0" ry="0" transform="translate(419 166.76)"></rect><path fill="#ffffff" d="M425.292 144.865q-1.16 0-1.44 1.06-.04.21-.04.42 0 .35.57 2.92.35 1.58.42 2.81h.95q.07-1.12.77-4.39.21-.92.21-1.38 0-1.12-1.02-1.37-.21-.07-.42-.07m4.33 0q-1.34.25-1.48 1.48 0 .35.56 2.92.35 1.58.42 2.81h.95q.07-1.12.78-4.39.21-.92.21-1.38 0-1.12-1.02-1.37-.21-.07-.42-.07"></path><rect width="7.25" height="7.21" x="-3.63" y="-3.6" fill="none" rx="0" ry="0" transform="translate(427.94 148.97)"></rect></svg></svg>